#N canvas 768 139 1086 873 10;
#X obj 353 740 packOSC;
#X obj 271 827 udpsend;
#X text 194 521 format for SSR;
#X msg 353 715 /source/position \$1 \$2 \$3 -1;
#X obj 539 583 print;
#X obj 751 222 s tempo;
#X floatatom 758 161 5 0 0 0 - - -, f 5;
#X msg 192 593 connect localhost 5005;
#X obj 565 188 s on-off;
#X msg 564 116 1;
#X msg 602 118 0;
#X obj 914 55 loadbang;
#X msg 914 77 \; pd dsp 1;
#X obj 747 755 packOSC;
#X obj 685 820 udpsend;
#X obj 564 523 r position;
#X msg 679 738 disconnect;
#X msg 672 678 /poll;
#X msg 767 708 /source/position \$1 \$2 \$3 -1;
#X msg 573 644 connect localhost 50001;
#X obj 452 564 bng 15 250 50 0 empty empty empty 17 7 0 10 -262144
-1 -1;
#X obj 522 394 test-generator 1;
#X connect 0 0 1 0;
#X connect 3 0 0 0;
#X connect 6 0 5 0;
#X connect 7 0 1 0;
#X connect 9 0 8 0;
#X connect 10 0 8 0;
#X connect 11 0 12 0;
#X connect 13 0 14 0;
#X connect 15 0 3 0;
#X connect 15 0 4 0;
#X connect 15 0 18 0;
#X connect 15 0 20 0;
#X connect 16 0 14 0;
#X connect 17 0 13 0;
#X connect 18 0 13 0;
#X connect 19 0 14 0;
