#N canvas 406 113 1086 873 10;
#X obj 353 740 packOSC;
#X obj 271 827 udpsend;
#X text 194 521 format for SSR;
#X obj 539 583 print;
#X obj 751 222 s tempo;
#X floatatom 758 161 5 0 0 0 - - -, f 5;
#X msg 192 593 connect localhost 5005;
#X obj 565 188 s on-off;
#X msg 564 116 1;
#X msg 602 118 0;
#X obj 914 55 loadbang;
#X msg 914 77 \; pd dsp 1;
#X obj 747 755 packOSC;
#X obj 685 820 udpsend;
#X obj 564 523 r position;
#X msg 679 738 disconnect;
#X msg 672 678 /poll;
#X msg 573 644 connect localhost 50001;
#X obj 522 394 test-generator 1;
#X obj 660 395 test-generator 2;
#X obj 792 398 test-generator 3;
#X obj 928 394 test-generator 4;
#X msg 767 708 /source/position \$1 \$2 \$3;
#X msg 353 715 /source/position \$1 \$2 \$3;
#X obj 849 793 print;
#X connect 0 0 1 0;
#X connect 5 0 4 0;
#X connect 6 0 1 0;
#X connect 8 0 7 0;
#X connect 9 0 7 0;
#X connect 10 0 11 0;
#X connect 12 0 13 0;
#X connect 12 0 24 0;
#X connect 14 0 23 0;
#X connect 14 0 3 0;
#X connect 14 0 22 0;
#X connect 15 0 13 0;
#X connect 16 0 12 0;
#X connect 17 0 13 0;
#X connect 22 0 12 0;
#X connect 23 0 0 0;
