#N canvas 2753 163 1086 873 10;
#X obj 501 780 packOSC;
#X obj 440 844 udpsend;
#X text 342 561 format for SSR;
#X obj 539 583 print;
#X obj 751 222 s tempo;
#X floatatom 758 161 5 0 0 0 - - -, f 5;
#X msg 365 683 connect localhost 5005;
#X obj 565 188 s on-off;
#X msg 564 116 1;
#X msg 602 118 0;
#X obj 914 55 loadbang;
#X msg 914 77 \; pd dsp 1;
#X obj 747 755 packOSC;
#X obj 685 820 udpsend;
#X obj 564 523 r position;
#X msg 679 738 disconnect;
#X msg 672 678 /poll;
#X msg 767 708 /source/position \$1 \$2 \$3 -1;
#X msg 573 644 connect localhost 50001;
#X obj 452 564 bng 15 250 50 0 empty empty empty 17 7 0 10 -262144
-1 -1;
#X obj 649 338 test-generator 1;
#X msg 503 732 /track/\$1/ \$1 \$2 \$3 -1;
#X obj 74 417 r azim;
#X obj 218 417 r dist;
#X obj 357 418 r elev;
#X msg 74 450 /track/\$1/azim \$2;
#X msg 218 449 /track/\$1/dist \$2;
#X msg 357 448 /track/\$1/elev \$2;
#X obj 94 511;
#X obj 220 560 packOSC;
#X obj 220 584 udpsend;
#X msg 69 585 connect localhost 5005;
#X msg 125 546 disconnect;
#X obj 74 473 print;
#X obj 41 47 polar-generator 1;
#X obj 40 174 polar-generator 2;
#X obj 39 292 polar-generator 3;
#X connect 0 0 1 0;
#X connect 5 0 4 0;
#X connect 6 0 1 0;
#X connect 8 0 7 0;
#X connect 9 0 7 0;
#X connect 10 0 11 0;
#X connect 12 0 13 0;
#X connect 14 0 21 0;
#X connect 14 0 3 0;
#X connect 14 0 17 0;
#X connect 14 0 19 0;
#X connect 15 0 13 0;
#X connect 16 0 12 0;
#X connect 17 0 12 0;
#X connect 18 0 13 0;
#X connect 21 0 0 0;
#X connect 22 0 25 0;
#X connect 23 0 26 0;
#X connect 24 0 27 0;
#X connect 25 0 29 0;
#X connect 25 0 33 0;
#X connect 26 0 29 0;
#X connect 27 0 29 0;
#X connect 29 0 30 0;
#X connect 31 0 30 0;
#X connect 32 0 30 0;
