#N canvas 2928 278 724 517 10;
#X obj 103 265 osc~;
#X floatatom 161 188 5 0 0 0 - - -, f 5;
#X obj 278 264 osc~;
#X floatatom 231 187 5 0 0 0 - - -, f 5;
#X obj 117 308 snapshot~;
#X obj 282 308 snapshot~;
#X obj 201 159 metro 10;
#X obj 201 132 tgl 15 0 empty empty empty 17 7 0 10 -262144 -1 -1 1
1;
#X obj 290 13 loadbang;
#X obj 9 261 bng 15 250 50 0 empty empty empty 17 7 0 10 -262144 -1
-1;
#X obj 34 325 i \$1;
#X obj 246 133 r tempo;
#X floatatom 117 330 5 0 0 0 - - -, f 5;
#X obj 201 61 r on-off;
#X obj 324 166 random 2;
#X obj 111 211 / 9;
#X floatatom 290 355 5 0 0 0 - - -, f 5;
#X obj 418 276 osc~;
#X floatatom 279 182 5 0 0 0 - - -, f 5;
#X obj 422 320 snapshot~;
#X obj 464 178 random 2;
#X obj 89 424 pack i f;
#X obj 89 453 s azim;
#X obj 275 434 pack i f;
#X obj 275 463 s dist;
#X obj 429 437 pack i f;
#X obj 429 466 s elev;
#X obj 282 331 * 5;
#X obj 422 343 * 80;
#X obj 117 352 * 360;
#X obj 464 199 / 12;
#X obj 324 187 / 12;
#X obj 96 179 random 12;
#X connect 0 0 4 0;
#X connect 1 0 0 0;
#X connect 2 0 5 0;
#X connect 3 0 2 0;
#X connect 4 0 12 0;
#X connect 5 0 27 0;
#X connect 6 0 4 0;
#X connect 6 0 5 0;
#X connect 6 0 9 0;
#X connect 6 0 19 0;
#X connect 7 0 6 0;
#X connect 8 0 14 0;
#X connect 8 0 20 0;
#X connect 8 0 32 0;
#X connect 9 0 10 0;
#X connect 10 0 21 0;
#X connect 10 0 23 0;
#X connect 10 0 25 0;
#X connect 11 0 6 1;
#X connect 12 0 29 0;
#X connect 13 0 7 0;
#X connect 14 0 31 0;
#X connect 15 0 1 0;
#X connect 16 0 23 1;
#X connect 17 0 19 0;
#X connect 18 0 17 0;
#X connect 19 0 28 0;
#X connect 20 0 30 0;
#X connect 21 0 22 0;
#X connect 23 0 24 0;
#X connect 25 0 26 0;
#X connect 27 0 16 0;
#X connect 28 0 25 1;
#X connect 29 0 21 1;
#X connect 30 0 18 0;
#X connect 31 0 3 0;
#X connect 32 0 15 0;
#X coords 0 -1 1 1 222 111 1 100 100;
