#N canvas 216 347 760 553 10;
#X obj 290 194 osc~;
#X floatatom 291 172 5 0 0 0 - - -, f 5;
#X obj 465 193 osc~;
#X floatatom 461 163 5 0 0 0 - - -, f 5;
#X obj 304 237 snapshot~;
#X obj 469 237 snapshot~;
#X obj 388 88 metro 10;
#X obj 380 62 tgl 15 0 empty empty empty 17 7 0 10 -262144 -1 -1 0
1;
#X obj 439 5 loadbang;
#X obj 276 382 s position;
#X obj 276 360 pack i f f;
#X obj 196 190 bng 15 250 50 0 empty empty empty 17 7 0 10 -262144
-1 -1;
#X obj 221 254 i \$1;
#X obj 542 15 r tempo;
#X floatatom 304 259 5 0 0 0 - - -, f 5;
#X obj 299 7 r on-off;
#X obj 511 95 random 2;
#X obj 298 140 / 9;
#X obj 283 108 random 2;
#X obj 511 116 / 7;
#X floatatom 469 259 5 0 0 0 - - -, f 5;
#X connect 0 0 4 0;
#X connect 1 0 0 0;
#X connect 2 0 5 0;
#X connect 3 0 2 0;
#X connect 4 0 10 1;
#X connect 4 0 14 0;
#X connect 5 0 10 2;
#X connect 5 0 20 0;
#X connect 6 0 4 0;
#X connect 6 0 5 0;
#X connect 6 0 11 0;
#X connect 7 0 6 0;
#X connect 8 0 16 0;
#X connect 8 0 18 0;
#X connect 10 0 9 0;
#X connect 11 0 12 0;
#X connect 12 0 10 0;
#X connect 13 0 6 1;
#X connect 15 0 7 0;
#X connect 16 0 19 0;
#X connect 17 0 1 0;
#X connect 18 0 17 0;
#X connect 19 0 3 0;
