#N canvas 526 1004 450 300 10;
#X obj 157 226 udpsend;
#X msg 219 198 disconnect;
#X obj 90 129 packOSC;
#X msg 205 126 connect localhost 5005;
#X msg 90 90 /test \$1;
#X floatatom 90 42 5 0 0 0 - - -, f 5;
#X connect 1 0 0 0;
#X connect 2 0 0 0;
#X connect 3 0 0 0;
#X connect 4 0 2 0;
#X connect 5 0 4 0;
