#N canvas 2500 240 760 553 10;
#X obj 94 265 osc~;
#X floatatom 95 243 5 0 0 0 - - -, f 5;
#X obj 269 264 osc~;
#X floatatom 265 234 5 0 0 0 - - -, f 5;
#X obj 108 308 snapshot~;
#X obj 273 308 snapshot~;
#X obj 192 159 metro 10;
#X obj 184 133 tgl 15 0 empty empty empty 17 7 0 10 -262144 -1 -1 1
1;
#X obj 243 76 loadbang;
#X obj 80 453 s position;
#X obj 0 261 bng 15 250 50 0 empty empty empty 17 7 0 10 -262144 -1
-1;
#X obj 25 325 i \$1;
#X obj 346 86 r tempo;
#X floatatom 108 330 5 0 0 0 - - -, f 5;
#X obj 103 78 r on-off;
#X obj 315 166 random 2;
#X obj 102 211 / 9;
#X obj 87 179 random 2;
#X obj 315 187 / 7;
#X floatatom 273 330 5 0 0 0 - - -, f 5;
#X obj 409 276 osc~;
#X floatatom 405 246 5 0 0 0 - - -, f 5;
#X obj 413 320 snapshot~;
#X obj 455 178 random 2;
#X obj 455 199 / 7;
#X floatatom 413 342 5 0 0 0 - - -, f 5;
#X obj 80 431 pack i f f f;
#X connect 0 0 4 0;
#X connect 1 0 0 0;
#X connect 2 0 5 0;
#X connect 3 0 2 0;
#X connect 4 0 13 0;
#X connect 4 0 26 1;
#X connect 5 0 19 0;
#X connect 5 0 26 2;
#X connect 6 0 4 0;
#X connect 6 0 5 0;
#X connect 6 0 10 0;
#X connect 6 0 22 0;
#X connect 7 0 6 0;
#X connect 8 0 15 0;
#X connect 8 0 17 0;
#X connect 8 0 23 0;
#X connect 10 0 11 0;
#X connect 11 0 26 0;
#X connect 12 0 6 1;
#X connect 14 0 7 0;
#X connect 15 0 18 0;
#X connect 16 0 1 0;
#X connect 17 0 16 0;
#X connect 18 0 3 0;
#X connect 20 0 22 0;
#X connect 21 0 20 0;
#X connect 22 0 25 0;
#X connect 23 0 24 0;
#X connect 24 0 21 0;
#X connect 25 0 26 3;
#X connect 26 0 9 0;
#X coords 0 -1 1 1 222 111 1 100 100;
