#N canvas 960 710 450 300 10;
#X obj 157 226 udpsend;
#X msg 219 198 disconnect;
#X obj 108 67 packOSC;
#X msg 108 28 /test 1;
#X msg 190 137 connect localhost 5005;
#X connect 1 0 0 0;
#X connect 2 0 0 0;
#X connect 3 0 2 0;
#X connect 4 0 0 0;
